<?xml version="1.0" encoding="utf-8"?>
<!-- Generator: Adobe Illustrator 18.0.0, SVG Export Plug-In . SVG Version: 6.00 Build 0)  -->
<!DOCTYPE svg PUBLIC "-//W3C//DTD SVG 1.1//EN" "http://www.w3.org/Graphics/SVG/1.1/DTD/svg11.dtd">
<svg version="1.1" id="Layer_1" xmlns="http://www.w3.org/2000/svg" xmlns:xlink="http://www.w3.org/1999/xlink" x="0px" y="0px"
	 viewBox="0 0 1700 1400" enable-background="new 0 0 1700 1400" xml:space="preserve">
<g>
	<defs>
		<rect id="SVGID_3_" width="1700" height="1400"/>
	</defs>
	<clipPath id="SVGID_2_">
		<use xlink:href="#SVGID_3_"  overflow="visible"/>
	</clipPath>
	<g clip-path="url(#SVGID_2_)">
		<path fill="#FFF2E1" d="M1484.9,386.6c-39.6,4.4-77,25.4-101.4,56.8c-27.3-26.6-75.9-28.7-105.4-4.7
			c-31.7-43.6-79.7-75.1-132.4-86.6c-52.7-11.6-109.5-3.1-156.5,23.2c-19.3-15.2-52.4-9.5-63.1,12.6c-22.7-20.9-55.9-29.7-86-22.8
			s-56.2,29.2-67.6,57.8c-18.6-13.9-48.2-9-61.4,10c-54-38-133.9-37.5-187.6,0.8c-11.5-23.4-34.6-40.7-60.3-45
			c-25.7-4.4-50.6,5.2-69.1,23.5c-19.2-25.2-49.9-41.2-81.6-42.4c-31.6-1.2-64.1,11.3-85.1,34.9c-7.5-10.8-21.1-17.1-34.2-15.9
			c-13.1,1.3-25.2,10.1-30.5,22.1c-6.4-18.4-31.6-27.1-49.7-19.9C88.5,352.9,45.1,327.9,0,324.4V1400h1700V371.3
			c-38.6,5.7-75.4,22.1-103.7,48.6C1565.6,394.5,1524.5,382.2,1484.9,386.6z"/>
		<g>
			<polygon fill="#B1B7C6" points="928.9,605.6 928.9,675.6 1159.3,675.6 1270.3,593.6 1173.3,501.8 1032.7,399.8 1032.7,501.8 			
				"/>
			<polygon fill="#B1B7C6" points="1337.5,546 1221.3,474.8 1304.8,622.2 			"/>
			<polygon fill="#B1B7C6" points="1522.9,534.8 1473.5,501.8 1484.5,566.9 			"/>
			<polygon fill="#B1B7C6" points="1654.3,577.1 1700,643.3 1700,576.8 1575.9,488.3 1612.3,577.1 			"/>
			<polygon fill="#DEDFE0" points="1654.3,577.1 1612.3,577.1 1575.9,488.3 1522.9,534.8 1484.5,566.9 1473.5,501.8 1365.4,563 
				1337.5,546 1304.8,622.2 1221.3,474.8 1173.3,501.8 1270.3,593.6 1159.3,675.6 928.9,675.6 928.9,605.6 1032.7,501.8 
				1032.7,399.8 813.3,552.2 681.2,724.1 647.3,670.1 711.3,545.6 689.9,575.6 711.3,471.8 534.3,552.2 385.5,459.8 330.3,498.8 
				301,542 329,533 301,571 255,862.2 160.7,731.2 267,513 215,539 199.1,420.8 141.2,501.8 83.3,501.8 0,576.8 0,1400 1700,1400 
				1700,643.3 			"/>
			<polygon fill="#B1B7C6" points="267,513 160.7,731.2 255,862.2 301,571 329,533 301,542 330.3,498.8 199.1,420.8 215,539 			"/>
			<polygon fill="#B1B7C6" points="711.3,545.6 647.3,670.1 681.2,724.1 813.3,552.2 711.3,471.8 689.9,575.6 			"/>
		</g>
		<linearGradient id="SVGID_4_" gradientUnits="userSpaceOnUse" x1="850" y1="-3.816149e-08" x2="850" y2="443.4323">
			<stop  offset="0" style="stop-color:#CDDAE2"/>
			<stop  offset="0.6428" style="stop-color:#F1F4F7"/>
			<stop  offset="1" style="stop-color:#FFFFFF"/>
		</linearGradient>
		<path fill="url(#SVGID_4_)" d="M0,0v324.4c45.1,3.5,88.5,28.5,112.9,66.7c18.2-7.1,43.3,1.5,49.7,19.9
			c5.3-12.1,17.4-20.9,30.5-22.1c13.1-1.3,26.7,5,34.2,15.9c21-23.6,53.5-36.1,85.1-34.9c31.6,1.2,62.4,17.2,81.6,42.4
			c18.5-18.3,43.4-27.9,69.1-23.5c25.7,4.4,48.8,21.7,60.3,45c53.7-38.3,133.6-38.8,187.6-0.8c13.2-19,42.9-23.8,61.4-10
			c11.4-28.6,37.5-51,67.6-57.8s63.3,2,86,22.8c10.7-22.1,43.7-27.8,63.1-12.6c47-26.3,103.8-34.8,156.5-23.2
			c52.7,11.6,100.7,43,132.4,86.6c29.6-24,78.2-21.9,105.4,4.7c24.4-31.5,61.8-52.4,101.4-56.8s80.7,7.9,111.4,33.3
			c28.3-26.5,65.2-42.9,103.7-48.6V0H0z"/>
		<g>
			<polygon fill="#BA899A" points="950.4,675.4 992.7,675.4 992.7,731.2 1075.3,749.8 1115,799 1075.3,690 1083,630.3 995.5,552.2 
				995.5,630.3 			"/>
			<polygon fill="#BA899A" points="1221.3,665 1221.3,749.8 1270.3,541.1 1221.3,501.8 1207,690 			"/>
			<polygon fill="#F2DBC4" points="1629,667 1573.9,554.3 1522.9,605.3 1600,690 			"/>
			<polygon fill="#CCA29F" points="1525,892.8 1451,812 1247,884.5 1337,781 1525,731.2 1491,700 1525,700 1435,593 1419.2,616.8 
				1365.4,563 1365.4,447.8 1270.3,541.1 1221.3,749.8 1221.3,665 1207,690 1221.3,501.8 1083,630.3 1075.3,690 1115,799 
				1075.3,749.8 992.7,731.2 992.7,675.4 950.4,675.4 995.5,630.3 995.5,552.2 902.2,645.5 861,700 863.3,606.6 637.6,832.4 
				637.6,1400 1379.1,1400 1379.1,1080.3 			"/>
			<polygon fill="#BA899A" points="902.2,645.5 863.3,606.6 861,700 			"/>
			<polygon fill="#BA899A" points="1700,685.2 1573.9,554.3 1629,667 1600,690 1522.9,605.3 1365.4,447.8 1365.4,563 1419.2,616.8 
				1435,593 1525,700 1491,700 1525,731.2 1337,781 1247,884.5 1451,812 1525,892.8 1379.1,1080.3 1379.1,1400 1700,1400 			"/>
		</g>
		<g>
			<polygon fill="#75657E" points="513,554.4 385.5,682 498.8,613.2 539.7,641.1 539.7,815.7 498.8,852.9 627,771.1 662.3,799 
				662.3,910.5 758.9,960.6 758.9,1040.5 706.9,1083.2 809.1,1042.4 972.6,1146.4 861,1046.6 861,979.7 923.7,977 861,947.7 
				932,857.1 1036.5,917 1019.8,872.5 1177.2,1038.3 1289.6,1400 1291.9,1400 1291.9,1074.8 1044.7,827.6 969.3,827.6 876.7,707 
				812.1,704.8 747.2,630.3 776,731.2 743.9,713.6 755.1,749.8 681.2,689.2 618,596.1 589.3,582.1 567.8,482.4 484.5,364.7 
				484.5,525.9 			"/>
			<polygon fill="#ECC7A1" points="743.9,713.6 776,731.2 747.2,630.3 681.2,689.2 755.1,749.8 			"/>
			<polygon fill="#75657E" points="725.5,1137.1 543.4,1152 588,1114.8 506.3,1052.6 335.3,1096.2 418.9,1052.6 326,960.6 
				197.9,1016.4 235,971.8 160.7,884.5 160.7,1220.7 160.7,1400 869.5,1400 825.8,1220.7 			"/>
			<polygon fill="#695E79" points="1019.8,872.5 1036.5,917 932,857.1 861,947.7 923.7,977 861,979.7 861,1046.6 972.6,1146.4 
				995.5,1400 1289.6,1400 1177.2,1038.3 			"/>
			<path fill="#DFBBA3" d="M972.6,1146.4l-163.5-104l-102.2,40.9l52-42.7v-79.9l-96.6-50.2V799L627,771.1l-128.2,81.7l40.9-37.2
				V641.1l-40.9-27.9L385.5,682L513,554.4l-28.5-28.5V364.7L328,568.6L287.8,547L150,713.6l-38.8-14.4L0,827.6V1400h160.7v-179.3
				V884.5l74.3,87.3l-37.2,44.6L326,960.6l92.9,92l-83.6,43.7l170.9-43.7l81.7,62.2l-44.6,37.2l182.1-14.9l100.3,83.6l43.7,179.3
				h126L972.6,1146.4z M189.4,819.5L87.7,901.7L22.2,917l43.2-108.7l61.3-36.2l72.5,11.1l-100.3,78L189.4,819.5z M326,892.8
				l40.9-56.7l-66,26.9l-13-31.6l139.3-100.3l-29.7,41l55.7-41l16.7,64.1L326,892.8z"/>
			<polygon fill="#75657E" points="126.7,772.1 65.4,808.4 22.2,917 87.7,901.7 189.4,819.5 98.8,861.3 199.1,783.3 			"/>
			<polygon fill="#75657E" points="397.6,772.1 427.3,731.2 288,831.5 301,863.1 366.9,836.2 326,892.8 470,795.3 453.3,731.2 			
				"/>
		</g>
		<g>
			<path fill="#F0E2D4" d="M1700,1211.4V989.9c-85.3,59.1-183,100.2-285,119.4c42.1-13.6,80.3-38.8,109.4-72.2
				c-59.2,39.8-134.6,45.6-205.9,44.4s-144.2-7.8-212.9,11.5c-72.6,20.4-141.2,72.1-203.2,115c-163.5,113.4-378.4,149.3-569.9,95.2
				c32.8-2.1,65.6-4.2,98.4-6.4c-57.3-3.6-112-24.1-165-46.3c-52.9-22.2-105.6-46.4-161.8-58c-34-7-69.9-9-104.1-3.2V1400h797.9
				c127.9-53.4,257.9-101.1,392.4-134.3C1356.7,1224.7,1528.7,1206.4,1700,1211.4z"/>
			<path fill="#FFF3E2" d="M104.1,1192.7c56.2,11.6,108.9,35.8,161.8,58c52.9,22.2,107.7,42.7,165,46.3c-32.8,2.1-65.6,4.2-98.4,6.4
				c191.5,54.1,406.4,18.2,569.9-95.2c61.9-43,130.6-94.6,203.2-115c68.7-19.3,141.5-12.7,212.9-11.5s146.7-4.6,205.9-44.4
				c-29,33.4-67.3,58.6-109.4,72.2c102-19.2,199.7-60.3,285-119.4v-93.3c-105.7,52.3-223.9,79.2-341.8,75.1
				c-90.1-3.2-181.8-23.2-269.3-1.4c-129,32.2-221.6,148.5-347.1,192.4c-95.6,33.4-201.2,21.4-299.4-3.4
				c-98.2-24.8-193.4-62-293.3-78.8c-48.9-8.2-99.8-11.1-149.1-5.3v114.4C34.1,1183.7,70,1185.7,104.1,1192.7z"/>
			<path fill="#C1B7AA" d="M1700,1211.4c-171.3-5-343.3,13.3-509.7,54.3c-134.5,33.2-264.5,80.8-392.4,134.3H1700V1211.4z"/>
		</g>
		<path fill="#FFFFFF" d="M1087.5,183.9c17.2,0,33.1,5.7,45.8,15.3c18.4-30.5,51.8-50.8,90-50.8c47,0,86.7,30.8,100.2,73.4h-301.8
			C1034.9,199.1,1059.4,183.9,1087.5,183.9z"/>
		<path fill="#FFFFFF" d="M133,79.8c22.1,0,41.2,12.6,50.5,31.1c4-2.7,8.8-4.3,14-4.3c7.2,0,13.6,3,18.2,7.9
			c7.1-10.9,19.4-18.1,33.4-18.1c18.7,0,34.4,12.9,38.8,30.2H77.3C82,100,105.1,79.8,133,79.8z"/>
		<path fill="#FFFFFF" d="M866.3,232c24.5,0,45.6,14.9,54.7,36.1c8.3-7.2,19.1-11.6,31-11.6c21.8,0,40.2,14.8,45.6,35H806.8
			C806.8,258.6,833.4,232,866.3,232z"/>
		<path fill="#FFFFFF" d="M1444.2,268.9c19.1,0,35.6,11.6,42.6,28.1c6.5-5.6,14.9-9.1,24.2-9.1c17,0,31.3,11.6,35.6,27.3h-148.7
			C1397.8,289.7,1418.6,268.9,1444.2,268.9z"/>
		<path fill="#FFFFFF" d="M1369.8,287.8c19.1,0,35.6,11.6,42.6,28.1c6.5-5.6,14.9-9.1,24.2-9.1c17,0,31.3,11.6,35.6,27.3h-148.7
			C1323.5,308.6,1344.2,287.8,1369.8,287.8z"/>
		<path fill="#FFFFFF" d="M1064,49.1c7.9,0,15.2,2.4,21.3,6.5c10.3-19.8,31-33.3,54.8-33.3c25.7,0,47.8,15.7,57.1,38.1
			c3.5-1.6,7.3-2.5,11.4-2.5c10.1,0,18.9,5.5,23.6,13.7h-203C1035.2,58.3,1048.5,49.1,1064,49.1z"/>
		<path fill="#FFFFFF" d="M701,92.5c-10.9,0-20.9,3.6-28.9,9.7c-11.6-19.2-32.7-32.1-56.8-32.1c-29.7,0-54.8,19.5-63.3,46.3h190.6
			C734.3,102.1,718.8,92.5,701,92.5z"/>
		<path fill="#FFFFFF" d="M1599,102.2c-14.1,0-27.2,4.7-37.7,12.6c-15.1-25-42.6-41.8-74-41.8c-38.6,0-71.3,25.3-82.3,60.3h248.1
			C1642.2,114.8,1622.1,102.2,1599,102.2z"/>
		<path fill="#FFFFFF" d="M288.1,241.2c14.1,0,27.2,4.7,37.7,12.6c15.1-25,42.6-41.8,74-41.8c38.6,0,71.3,25.3,82.3,60.3H234
			C244.8,253.7,265,241.2,288.1,241.2z"/>
	</g>
</g>
</svg>
